<?xml version="1.0" standalone="no"?>
<!DOCTYPE svg PUBLIC "-//W3C//DTD SVG 20010904//EN"
 "http://www.w3.org/TR/2001/REC-SVG-20010904/DTD/svg10.dtd">
<svg version="1.0" xmlns="http://www.w3.org/2000/svg"
 width="1080.000000pt" height="763.000000pt" viewBox="0 0 1080.000000 763.000000"
 preserveAspectRatio="xMidYMid meet">

<g transform="translate(0.000000,763.000000) scale(0.100000,-0.100000)"
fill="#000000" stroke="none">
<path d="M3600 7614 c-459 -40 -793 -111 -1145 -243 -475 -177 -881 -427
-1256 -774 -229 -211 -470 -510 -654 -812 -357 -582 -561 -1329 -542 -1985 17
-592 164 -1141 450 -1683 470 -890 1248 -1574 2172 -1909 252 -91 711 -218
736 -202 11 6 12 1365 1 1379 -4 6 -65 30 -137 54 -710 235 -1298 720 -1600
1321 -352 700 -363 1541 -31 2235 330 688 983 1195 1735 1345 207 41 364 54
566 46 198 -7 276 -17 440 -52 453 -96 874 -331 1225 -683 320 -321 546 -696
687 -1141 22 -69 44 -141 49 -160 l10 -35 104 -6 c58 -4 340 -7 628 -8 411 -1
522 2 522 12 0 6 -7 46 -15 87 -93 462 -283 951 -523 1347 -162 267 -313 463
-527 682 -339 348 -691 604 -1110 811 -342 169 -617 262 -957 324 -199 37
-661 65 -828 50z"/>
<path d="M3510 5560 c-602 -107 -1106 -533 -1323 -1120 -85 -228 -119 -480
-97 -720 13 -149 22 -202 61 -340 98 -356 293 -669 572 -921 129 -116 219
-180 358 -253 266 -140 608 -235 809 -224 l65 3 2 805 c1 443 3 813 3 822 0
17 48 18 828 20 l827 3 -3 105 c-2 66 -14 160 -32 253 -82 408 -272 774 -554
1066 -264 272 -569 436 -945 506 -121 22 -432 19 -571 -5z"/>
<path d="M4220 2820 l0 -460 105 0 105 0 2 168 3 167 213 3 213 2 -3 83 -3 82
-212 3 -213 2 0 120 0 120 243 2 242 3 0 80 0 80 -347 3 -348 2 0 -460z"/>
<path d="M5060 2820 l0 -460 340 0 340 0 0 85 c0 81 -1 85 -22 85 -13 1 -117
2 -233 3 l-210 2 -3 373 -2 372 -105 0 -105 0 0 -460z"/>
<path d="M6003 2937 c-84 -188 -175 -392 -203 -454 -27 -62 -50 -115 -50 -118
0 -3 48 -4 107 -3 l108 3 35 85 c19 47 39 91 43 98 6 9 61 12 217 12 156 0
211 -3 217 -12 4 -7 24 -51 43 -98 l35 -85 108 -3 c72 -2 107 1 107 8 0 6 -29
75 -64 153 -118 262 -203 451 -271 605 l-68 152 -106 0 -106 0 -152 -343z
m330 -36 c37 -88 67 -164 67 -170 0 -7 -47 -11 -140 -11 -77 0 -140 4 -140 9
0 4 27 75 61 157 34 82 63 155 66 162 3 6 8 12 13 12 4 0 37 -72 73 -159z"/>
<path d="M6710 3276 c0 -2 86 -204 191 -447 105 -244 193 -450 196 -457 4 -9
32 -12 111 -10 l106 3 62 145 c34 80 121 282 193 449 72 167 131 308 131 313
0 5 -45 7 -101 6 l-102 -3 -99 -230 c-55 -126 -117 -270 -137 -318 -21 -48
-42 -89 -45 -90 -4 -1 -69 142 -144 318 l-137 320 -112 3 c-62 1 -113 1 -113
-2z"/>
<path d="M8036 3253 c-7 -16 -66 -145 -129 -288 -63 -143 -149 -336 -191 -429
-42 -92 -76 -170 -76 -172 0 -3 48 -3 107 -2 l107 3 41 95 41 95 209 3 c126 1
212 -1 218 -7 6 -6 27 -50 47 -98 l36 -88 107 -3 c81 -2 107 0 107 10 0 11
-232 536 -363 821 l-40 87 -103 0 c-103 0 -104 0 -118 -27z m190 -353 c35 -85
63 -161 64 -167 0 -10 -34 -13 -140 -13 -77 0 -140 3 -140 7 0 20 135 333 143
330 5 -1 38 -72 73 -157z"/>
<path d="M8620 3195 l0 -85 145 0 145 0 2 -372 3 -373 105 0 105 0 3 373 2
372 145 0 145 0 0 85 0 85 -400 0 -400 0 0 -85z"/>
<path d="M9540 2820 l0 -460 105 0 105 0 0 460 0 460 -105 0 -105 0 0 -460z"/>
<path d="M9890 3276 c0 -2 70 -102 155 -221 85 -120 155 -221 155 -225 0 -5
-74 -110 -165 -234 -91 -124 -165 -228 -165 -231 0 -3 53 -5 118 -5 l118 0
109 161 109 160 18 -23 c10 -13 60 -83 110 -157 51 -73 98 -135 104 -138 5 -2
61 -2 122 -1 l112 3 -151 210 c-83 116 -160 222 -170 236 l-19 27 155 215 c85
118 155 218 155 221 0 3 -49 6 -109 6 l-110 0 -98 -142 c-54 -78 -103 -143
-108 -144 -6 -2 -55 62 -110 141 l-100 144 -117 1 c-65 0 -118 -2 -118 -4z"/>
</g>
</svg>
